<svg width="16" height="16" viewBox="0 0 16 16" fill="none" xmlns="http://www.w3.org/2000/svg">
<path d="M6.08929 2L5.64286 2.05085C5.64286 2.05085 3.64063 2.25847 2.17857 3.37288H2.16071L2.14286 3.38983C1.81473 3.67585 1.67187 4.02754 1.44643 4.54237C1.22098 5.0572 0.979911 5.71398 0.767857 6.44068C0.34375 7.89619 0 9.6589 0 11.2712V11.4068L0.0714286 11.5424C0.600446 12.4237 1.54018 12.9852 2.41071 13.3729C3.28125 13.7606 4.03348 13.9661 4.55357 13.9831L4.89286 14L5.07143 13.7119L5.69643 12.661C6.35938 12.803 7.12277 12.8983 8 12.8983C8.87723 12.8983 9.64063 12.803 10.3036 12.661L10.9286 13.7119L11.1071 14L11.4464 13.9831C11.9665 13.9661 12.7188 13.7606 13.5893 13.3729C14.4598 12.9852 15.3996 12.4237 15.9286 11.5424L16 11.4068V11.2712C16 9.6589 15.6563 7.89619 15.2321 6.44068C15.0201 5.71398 14.779 5.0572 14.5536 4.54237C14.3281 4.02754 14.1853 3.67585 13.8571 3.38983L13.8393 3.37288H13.8214C12.3594 2.25847 10.3571 2.05085 10.3571 2.05085L9.91072 2L9.75 2.38983C9.75 2.38983 9.58482 2.78602 9.48214 3.23729C8.83482 3.15466 8.3058 3.13559 8 3.13559C7.6942 3.13559 7.16518 3.15466 6.51786 3.23729C6.41518 2.78602 6.25 2.38983 6.25 2.38983L6.08929 2ZM5.30357 3.23729C5.32813 3.31356 5.35268 3.37924 5.375 3.44068C4.63616 3.61441 3.84821 3.87924 3.125 4.30508L3.73214 5.22034C5.21429 4.34746 7.34375 4.22034 8 4.22034C8.65625 4.22034 10.7857 4.34746 12.2679 5.22034L12.875 4.30508C12.1518 3.87924 11.3638 3.61441 10.625 3.44068C10.6473 3.37924 10.6719 3.31356 10.6964 3.23729C11.2299 3.33898 12.2478 3.57203 13.0893 4.20339C13.0848 4.20551 13.3036 4.51907 13.5 4.9661C13.7009 5.42585 13.9241 6.03814 14.125 6.72881C14.5112 8.05297 14.8147 9.66525 14.8393 11.0847C14.4799 11.6059 13.8125 12.0763 13.1071 12.3898C12.4911 12.6631 12.0045 12.7627 11.7143 12.8136L11.4286 12.3559C11.5982 12.2966 11.7656 12.2309 11.9107 12.1695C12.7902 11.803 13.2679 11.4068 13.2679 11.4068L12.5179 10.5932C12.5179 10.5932 12.1964 10.8729 11.4464 11.1864C10.6964 11.5 9.55134 11.8136 8 11.8136C6.44866 11.8136 5.30357 11.5 4.55357 11.1864C3.80357 10.8729 3.48214 10.5932 3.48214 10.5932L2.73214 11.4068C2.73214 11.4068 3.20982 11.803 4.08929 12.1695C4.23438 12.2309 4.40179 12.2966 4.57143 12.3559L4.28571 12.8136C3.99554 12.7627 3.50893 12.6631 2.89286 12.3898C2.1875 12.0763 1.52009 11.6059 1.16071 11.0847C1.18527 9.66525 1.48884 8.05297 1.875 6.72881C2.07589 6.03814 2.29911 5.42585 2.5 4.9661C2.69643 4.51907 2.91518 4.20551 2.91071 4.20339C3.75223 3.57203 4.77009 3.33898 5.30357 3.23729ZM6 6.9322C5.55804 6.9322 5.16741 7.17161 4.92857 7.47458C4.68973 7.77754 4.57143 8.15042 4.57143 8.55932C4.57143 8.96822 4.68973 9.3411 4.92857 9.64407C5.16741 9.94703 5.55804 10.1864 6 10.1864C6.44196 10.1864 6.83259 9.94703 7.07143 9.64407C7.31027 9.3411 7.42857 8.96822 7.42857 8.55932C7.42857 8.15042 7.31027 7.77754 7.07143 7.47458C6.83259 7.17161 6.44196 6.9322 6 6.9322ZM10 6.9322C9.55804 6.9322 9.16741 7.17161 8.92857 7.47458C8.68973 7.77754 8.57143 8.15042 8.57143 8.55932C8.57143 8.96822 8.68973 9.3411 8.92857 9.64407C9.16741 9.94703 9.55804 10.1864 10 10.1864C10.442 10.1864 10.8326 9.94703 11.0714 9.64407C11.3103 9.3411 11.4286 8.96822 11.4286 8.55932C11.4286 8.15042 11.3103 7.77754 11.0714 7.47458C10.8326 7.17161 10.442 6.9322 10 6.9322ZM6 8.01695C6.03125 8.01695 6.07143 8.02754 6.14286 8.11864C6.21429 8.20975 6.28571 8.36864 6.28571 8.55932C6.28571 8.75 6.21429 8.9089 6.14286 9C6.07143 9.0911 6.03125 9.1017 6 9.1017C5.96875 9.1017 5.92857 9.0911 5.85714 9C5.78571 8.9089 5.71429 8.75 5.71429 8.55932C5.71429 8.36864 5.78571 8.20975 5.85714 8.11864C5.92857 8.02754 5.96875 8.01695 6 8.01695ZM10 8.01695C10.0313 8.01695 10.0714 8.02754 10.1429 8.11864C10.2143 8.20975 10.2857 8.36864 10.2857 8.55932C10.2857 8.75 10.2143 8.9089 10.1429 9C10.0714 9.0911 10.0313 9.1017 10 9.1017C9.96875 9.1017 9.92857 9.0911 9.85714 9C9.78572 8.9089 9.71429 8.75 9.71429 8.55932C9.71429 8.36864 9.78572 8.20975 9.85714 8.11864C9.92857 8.02754 9.96875 8.01695 10 8.01695Z" fill="#9AE6B4"/>
</svg>
