<svg width="16" height="16" viewBox="0 0 16 16" fill="none" xmlns="http://www.w3.org/2000/svg">
<path d="M14.7681 1.0012C14.5514 1.01032 14.3496 1.07053 14.1718 1.13905C14.0053 1.20294 13.3692 1.46318 12.3673 1.87302C11.3645 2.28323 10.0367 2.82701 8.62028 3.40802C5.78743 4.57005 2.60256 5.8781 0.971262 6.54757C0.90992 6.57273 0.695881 6.63796 0.468706 6.80713C0.24153 6.9763 0 7.32685 0 7.71745C0 8.03241 0.157363 8.34532 0.355435 8.53214C0.553507 8.71896 0.763092 8.81124 0.942619 8.88111C1.594 9.13464 3.61422 9.92323 3.99571 10.0721C4.12997 10.4644 4.8612 12.5981 5.03077 13.121C5.14256 13.4661 5.24897 13.6822 5.38751 13.8537C5.45678 13.9395 5.5373 14.0146 5.63488 14.0735C5.67389 14.0971 5.71665 14.1152 5.75987 14.1319L5.76247 14.1331C5.77243 14.137 5.78102 14.1434 5.79112 14.1468C5.81017 14.1532 5.82292 14.1539 5.8484 14.1592C5.94994 14.1905 6.05246 14.2101 6.14395 14.2101C6.53402 14.2101 6.7728 14.0052 6.7728 14.0052L6.78712 13.9953L8.79344 12.3398L11.2268 14.5355C11.2611 14.5817 11.5806 15 12.2853 15C12.7037 15 13.0356 14.7997 13.2487 14.5864C13.4618 14.3732 13.5946 14.1491 13.651 13.8674V13.8661C13.7038 13.5999 15.9464 2.61817 15.9464 2.61817L15.9425 2.63307C16.0081 2.34724 16.0253 2.08106 15.9529 1.81838C15.8805 1.5557 15.6896 1.3042 15.453 1.16886C15.2163 1.03355 14.9848 0.992084 14.7681 1.0012ZM14.6431 2.33005C14.6399 2.3486 14.6455 2.33927 14.6405 2.36109L14.6392 2.36854L14.6379 2.376C14.6379 2.376 12.4231 13.2173 12.3413 13.6302C12.3473 13.599 12.3199 13.661 12.2918 13.6985C12.2521 13.6724 12.1707 13.6389 12.1707 13.6389L12.1577 13.6252L8.8338 10.626L6.48376 12.5634L7.18291 9.89327C7.18291 9.89327 11.5533 5.57794 11.8166 5.32677C12.0286 5.12584 12.0731 5.0558 12.0731 4.98649C12.0731 4.89365 12.0223 4.82628 11.909 4.82628C11.807 4.82628 11.6699 4.92087 11.5966 4.96538C10.6412 5.54626 6.44727 7.87785 4.56728 8.92086C4.26851 8.80423 2.1929 7.99379 1.48944 7.71993C1.49477 7.7177 1.49301 7.71849 1.49856 7.7162C3.13028 7.04656 6.31382 5.73853 9.14627 4.57666C10.5625 3.99572 11.8913 3.45153 12.8933 3.04166C13.8799 2.6381 14.5654 2.36036 14.6431 2.33005Z" fill="#9AE6B4"/>
</svg>
