<svg width="80" height="30" viewBox="0 0 80 30" fill="none" xmlns="http://www.w3.org/2000/svg">
<g clip-path="url(#clip0_7_219)">
<path d="M41.7048 9.93671L45.548 9.6883C45.6357 10.3166 45.7964 10.7843 46.0594 11.1203C46.4832 11.6464 47.0677 11.9094 47.8422 11.9094C48.4121 11.9094 48.8651 11.7779 49.1719 11.5003C49.4642 11.2811 49.6396 10.9304 49.6396 10.5651C49.6396 10.2144 49.4788 9.87826 49.2012 9.65907C48.9089 9.39604 48.2221 9.13301 47.1408 8.89921C45.3726 8.50466 44.1013 7.9786 43.3561 7.30642C42.6108 6.67807 42.187 5.75746 42.2163 4.77841C42.2163 4.10622 42.4208 3.43403 42.8008 2.87875C43.2392 2.2504 43.8383 1.75357 44.5543 1.47592C45.3288 1.13983 46.4101 0.964478 47.7691 0.964478C49.435 0.964478 50.7063 1.27135 51.583 1.89969C52.4598 2.51343 52.9859 3.5071 53.1466 4.86608L49.3473 5.08528C49.245 4.50077 49.0404 4.077 48.7043 3.79935C48.3682 3.52171 47.9299 3.3902 47.36 3.3902C46.8924 3.3902 46.5416 3.49249 46.3078 3.68245C46.0886 3.8578 45.9425 4.12083 45.9571 4.41309C45.9571 4.63228 46.074 4.83686 46.2494 4.96837C46.4394 5.14373 46.8923 5.30447 47.6084 5.45059C49.3765 5.83053 50.6332 6.21046 51.4077 6.605C52.1822 6.99955 52.7375 7.48177 53.0736 8.05167C53.4243 8.63618 53.5996 9.30836 53.585 9.99516C53.585 10.8135 53.3512 11.6318 52.8836 12.3186C52.4014 13.0346 51.7292 13.5899 50.9401 13.926C50.1072 14.2913 49.055 14.4813 47.7983 14.4813C45.5772 14.4813 44.0429 14.0575 43.1807 13.1954C42.3186 12.3332 41.8071 11.2519 41.7048 9.93671ZM0.920604 14.2621V1.19828H7.65709C8.89917 1.19828 9.86361 1.30057 10.5212 1.51976C11.1641 1.72434 11.734 2.14811 12.114 2.71801C12.5377 3.34636 12.7423 4.077 12.7277 4.83686C12.7716 6.12278 12.114 7.35025 10.9888 7.99322C10.5504 8.24163 10.0682 8.41699 9.57136 8.50466C9.93668 8.60695 10.302 8.7823 10.6235 8.98688C10.8719 9.19146 11.0765 9.42527 11.2664 9.67368C11.4856 9.9221 11.6756 10.1997 11.8363 10.492L13.7944 14.2767H9.20604L7.04335 10.2582C6.76571 9.74675 6.5319 9.41065 6.31271 9.24991C6.02046 9.04533 5.66975 8.94305 5.31905 8.94305H4.96834V14.2475H0.920604V14.2621ZM4.96834 6.4881H6.67803C7.04335 6.45888 7.39406 6.40042 7.74476 6.31275C8.00779 6.26891 8.2416 6.12278 8.40234 5.90359C8.79688 5.37753 8.73843 4.63228 8.25621 4.17929C7.99318 3.96009 7.48173 3.84319 6.7511 3.84319H4.96834V6.4881ZM0 25.4555L3.84316 25.207C3.93083 25.8354 4.09157 26.303 4.3546 26.6391C4.76376 27.1652 5.36288 27.4428 6.13736 27.4428C6.70726 27.4428 7.16025 27.3113 7.46712 27.0336C7.75938 26.7998 7.93473 26.4637 7.93473 26.0984C7.93473 25.7477 7.77399 25.4116 7.49635 25.1924C7.20409 24.9294 6.51729 24.6664 5.42133 24.4326C3.65319 24.038 2.38188 23.512 1.63663 22.8398C0.891378 22.2114 0.467608 21.2908 0.496834 20.3118C0.496834 19.6396 0.701413 18.9674 1.08134 18.4121C1.51973 17.7838 2.11885 17.2869 2.83488 17.0093C3.60935 16.6732 4.6907 16.4978 6.04968 16.4978C7.71554 16.4978 8.98685 16.8047 9.86361 17.4331C10.7404 18.0614 11.2518 19.0405 11.4126 20.3995L7.61325 20.6186C7.51096 20.0341 7.30638 19.6104 6.97029 19.3327C6.64881 19.0551 6.19581 18.9236 5.62591 18.9382C5.1583 18.9382 4.8076 19.0405 4.57379 19.245C4.33999 19.4204 4.20848 19.6834 4.22309 19.9757C4.22309 20.1949 4.33999 20.3994 4.51534 20.531C4.70531 20.7063 5.1583 20.8671 5.87433 21.0132C7.64247 21.3931 8.89917 21.773 9.67365 22.1676C10.4481 22.5621 11.0034 23.0444 11.3395 23.6143C11.6902 24.1988 11.8656 24.871 11.8656 25.5431C11.8656 26.3615 11.6171 27.1652 11.1641 27.852C10.6819 28.568 10.0097 29.1233 9.22065 29.4594C8.38772 29.8247 7.33561 30.0146 6.07891 30.0146C3.85777 30.0146 2.32343 29.5909 1.46128 28.7287C0.599123 27.852 0.116902 26.7706 0 25.4555H0Z" fill="white"/>
<path d="M19.435 24.4325L22.9713 25.4993C22.7813 26.3906 22.3868 27.2382 21.8461 27.9834C21.3493 28.641 20.6917 29.1525 19.9464 29.4885C19.1866 29.8246 18.2221 30 17.0531 30C15.6357 30 14.4667 29.7954 13.5753 29.3863C12.6693 28.9771 11.8948 28.2465 11.2372 27.209C10.5797 26.1714 10.2582 24.8417 10.2582 23.2197C10.2582 21.057 10.8281 19.3911 11.9825 18.2367C13.1369 17.0823 14.7589 16.4978 16.8631 16.4978C18.5144 16.4978 19.8003 16.8339 20.7501 17.4915C21.6854 18.1637 22.3868 19.1866 22.8544 20.5601L19.2889 21.3492C19.2012 21.0424 19.0697 20.7355 18.8943 20.4725C18.6751 20.1656 18.3975 19.9318 18.0614 19.7564C17.7253 19.5811 17.3454 19.508 16.9654 19.508C16.0448 19.508 15.3434 19.8734 14.8612 20.6186C14.4959 21.1593 14.3059 22.0214 14.3059 23.1904C14.3059 24.6371 14.5251 25.6308 14.9635 26.1715C15.4019 26.7121 16.0156 26.9752 16.8193 26.9752C17.5938 26.9752 18.1783 26.756 18.5728 26.3322C18.9674 25.8792 19.2596 25.2508 19.435 24.4325ZM27.6912 16.717H31.7243V21.2908H36.1374V16.717H40.1997V29.7808H36.1374V24.491H31.7243V29.7808H27.6912V16.717Z" fill="white"/>
<path d="M39.6444 23.249C39.6444 21.1155 40.2435 19.4497 41.4272 18.266C42.6108 17.0824 44.2767 16.4833 46.3955 16.4833C48.5728 16.4833 50.2387 17.0678 51.4223 18.2368C52.6059 19.4058 53.1904 21.0425 53.1904 23.1467C53.1904 24.681 52.9274 25.9231 52.416 26.9022C51.9191 27.8666 51.1447 28.6557 50.1948 29.1818C49.2158 29.7224 48.0029 30.0001 46.5562 30.0001C45.0804 30.0001 43.8675 29.7663 42.9031 29.2987C41.9094 28.8018 41.0911 28.0274 40.5504 27.0775C39.9513 26.0546 39.6444 24.7833 39.6444 23.249ZM43.6775 23.2636C43.6775 24.5787 43.9259 25.5286 44.4082 26.1131C44.8904 26.683 45.5626 26.9752 46.4101 26.9752C47.2723 26.9752 47.9445 26.6976 48.4267 26.1277C48.9089 25.5578 49.1427 24.5495 49.1427 23.0882C49.1427 21.8608 48.8943 20.9548 48.3975 20.3995C47.9006 19.8296 47.2284 19.552 46.3809 19.552C45.6356 19.5227 44.9196 19.8442 44.4228 20.4141C43.926 20.984 43.6775 21.9338 43.6775 23.2636ZM57.3259 23.249C57.3259 21.1155 57.925 19.4497 59.1086 18.266C60.2922 17.0824 61.9581 16.4833 64.077 16.4833C66.2543 16.4833 67.9347 17.0678 69.1037 18.2368C70.2728 19.4058 70.8719 21.0425 70.8719 23.1467C70.8719 24.681 70.6089 25.9231 70.0974 26.9022C69.6006 27.8666 68.8261 28.6557 67.8763 29.1818C66.8972 29.7224 65.6844 30.0001 64.2377 30.0001C62.7618 30.0001 61.5489 29.7663 60.5845 29.2987C59.5908 28.8018 58.7725 28.0274 58.2318 27.0775C57.6327 26.0546 57.3259 24.7833 57.3259 23.249ZM61.359 23.2636C61.359 24.5787 61.6074 25.5286 62.0896 26.1131C62.5718 26.683 63.244 26.9752 64.0916 26.9752C64.9537 26.9752 65.6259 26.6976 66.1081 26.1277C66.5903 25.5578 66.8241 24.5495 66.8241 23.0882C66.8241 21.8608 66.5757 20.9548 66.0789 20.3995C65.5821 19.8296 64.9099 19.552 64.0623 19.552C63.3171 19.5227 62.5864 19.8442 62.1042 20.4141C61.6074 20.984 61.359 21.9338 61.359 23.2636Z" fill="white"/>
<path d="M70.4481 16.717H74.4812V26.566H80.7793V29.7809H70.4335V16.717H70.4481Z" fill="white"/>
</g>
<defs>
<clipPath id="clip0_7_219">
<rect width="80.7794" height="30" fill="white"/>
</clipPath>
</defs>
</svg>
